<svg id="Capa_1"  data-name="Capa 1" xmlns="http://www.w3.org/2000/svg" viewBox="0 0 29.06 29.06"><defs><style>.cls-1{fill:#fff;}</style></defs><path class="cls-1" d="M29.52,14.31v0H20.9l-.4-.69-.42-.72L16.12,6H13.88l-4,6.87-.42.72-.4.69H2.81q0-.35.06-.69c0-.24.06-.48.11-.72a12.21,12.21,0,0,1,9.24-9.75h0c.32-.07.65-.13,1-.18s.54-.07.81-.09l.25,0,.72,0,.72,0,.25,0c.27,0,.54,0,.8.09s.66.11,1,.18h0A12.21,12.21,0,0,1,27,12.86h2.35A14.49,14.49,0,0,0,26.4,6,15,15,0,0,0,23.34,3.1,14.55,14.55,0,0,0,19,1c-.33-.09-.65-.17-1-.24S17.33.65,17,.6s-.68-.08-1-.1-.64,0-1,0-.65,0-1,0-.69.06-1,.1-.69.11-1,.18S11.33.93,11,1A14.55,14.55,0,0,0,6.66,3.1,15,15,0,0,0,3.6,6a14.49,14.49,0,0,0-3,6.87q-.06.36-.09.72c0,.23,0,.46-.05.69v0c0,.23,0,.46,0,.69s0,.47,0,.7v0H8.26l-.41.7-.42.73-1.9,3.3H7.77l1.9-3.3.42-.73.41-.7v0l.41-.7.4-.69,0,0,.39-.69.42-.72L14,9.6l1-1.67h0l1,1.68,1.87,3.25.42.72.4.69,0,0,.4.69.41.7v0l.41.7.42.73,1.9,3.3h2.24l-1.91-3.3-.42-.73-.4-.7h5.45c0,.23,0,.47-.06.7s-.07.49-.11.73a12.1,12.1,0,0,1-1.1,3.3,13.17,13.17,0,0,1-.72,1.26c-.2.29-.41.58-.63.85a9.85,9.85,0,0,1-.67.78h0A12.16,12.16,0,0,1,16,27.17v-10H14v10A12.16,12.16,0,0,1,6.1,23.35a9.85,9.85,0,0,1-.67-.78C5.21,22.3,5,22,4.8,21.71a11.91,11.91,0,0,1-.72-1.25A12.1,12.1,0,0,1,3,17.16H.63a14.63,14.63,0,0,0,.9,3.3,15,15,0,0,0,1.58,2.89l.42.57c.21.27.43.53.66.79s.46.49.7.72A14.45,14.45,0,0,0,14,29.5c.32,0,.64,0,1,0s.65,0,1,0a14.48,14.48,0,0,0,9.14-4.07q.36-.34.69-.72c.23-.26.46-.52.67-.79l.42-.57a15,15,0,0,0,1.58-2.89,14.63,14.63,0,0,0,.9-3.3c0-.24.07-.49.09-.73s0-.47.05-.7v0c0-.23,0-.46,0-.7S29.53,14.54,29.52,14.31Z" transform="translate(-0.47 -0.47)"/><path class="cls-1" d="M14,16.19a1.76,1.76,0,0,0,.42.24,1.56,1.56,0,0,0,1.1,0,1.76,1.76,0,0,0,.42-.24,1.87,1.87,0,0,0,.38-.46s0,0,0,0a1.51,1.51,0,0,0,.17-.7,1.59,1.59,0,0,0-.16-.69s0,0,0,0a1.87,1.87,0,0,0-.38-.46,1.9,1.9,0,0,0-.39-.23,1.58,1.58,0,0,0-1.16,0,1.9,1.9,0,0,0-.39.23,1.87,1.87,0,0,0-.38.46s0,0,0,0a1.59,1.59,0,0,0-.16.69,1.51,1.51,0,0,0,.17.7v0A1.87,1.87,0,0,0,14,16.19Z" transform="translate(-0.47 -0.47)"/></svg>